<svg id="Layer_1" data-name="Layer 1" xmlns="http://www.w3.org/2000/svg" viewBox="0 0 50 50"><defs><style>.cls-1{fill:#e71e6d;}</style></defs><path class="cls-1" d="M13.6,5.2c-1.56.54-2.08,2.74-2.13,3-.43,1.93.69,2.56.22,3.84C11,14,8.05,13.27,7.1,15.21s1.4,3.59.36,6.25C7,22.64,6.46,22.54,6,23.89a6,6,0,0,0,.24,4.47,6.45,6.45,0,0,0,4,2.89c3,1,3.92.22,7.81.39,2.61.11,5.43.82,7,2.91,1.18,1.58,1.42,3.64,1.84,5.56s1.17,4,2.9,4.92a4.53,4.53,0,0,0,4.94-1c1.52-1.51.34-3,2.06-5.26,1.06-1.4,1.95-1.45,2.69-3.07A4.35,4.35,0,0,0,40,33C39.69,31,39,30.65,38.93,28.91a5.54,5.54,0,0,1,1-3.14c1.19-1.8,2.31-1.43,3.36-2.91a5.81,5.81,0,0,0,.17-6.17c-.86-1.27-1.72-.81-2.59-2.13-1.08-1.62-.07-2.76-1-5.14a6.83,6.83,0,0,0-2.15-3C36,5.11,33.85,5.24,32,5.38c-4,.3-4.32,1.79-6.63,1.3s-2.87-2.29-5-2.08c-1.4.14-1.55,1-3.19,1.07C15.33,5.78,14.79,4.78,13.6,5.2Z"/></svg>